<?xml version="1.0" encoding="UTF-8"?>
<svg id="Calque_2" data-name="Calque 2" xmlns="http://www.w3.org/2000/svg" viewBox="0 0 761.33 139.8">
  <defs>
    <style>
      .cls-1 {
        fill: #1d1d1b;
        stroke: #1d1d1b;
        stroke-miterlimit: 10;
      }
    </style>
  </defs>
  <g id="Calque_1-2" data-name="Calque 1">
    <g>
      <path class="cls-1" d="M156.64,5.52c0-2.1,1.7-3.8,3.8-3.8h86.87c20.08,0,31.49,4.26,31.49,29.97s-1.98,36.82-34.38,36.82h-69.07c-2.1,0-3.8,1.7-3.8,3.8v35.75c0,2.1-1.7,3.8-3.8,3.8h-7.3c-2.1,0-3.8-1.7-3.8-3.8V5.52ZM263.89,30.17c0-13.08-7.15-16.28-20.08-16.28h-68.46c-2.1,0-3.8,1.7-3.8,3.8v34.84c0,2.1,1.7,3.8,3.8,3.8h69.68c11.87,0,18.86-4.26,18.86-15.67v-10.5Z"/>
      <path class="cls-1" d="M283.36,5.52c0-2.1,1.7-3.8,3.8-3.8h84.28c31.8,0,36.82,10.5,36.82,31.19v8.98c0,15.52-8.82,19.78-20.23,20.84v.3c15.21,2.74,18.86,10.65,18.86,20.69v24.34c0,2.1-1.7,3.8-3.8,3.8h-6.39c-2.1,0-3.8-1.7-3.8-3.8v-20.39c0-17.19-8.37-19.32-21.91-19.32h-68.91c-2.1,0-3.8,1.7-3.8,3.8v35.9c0,2.1-1.7,3.8-3.8,3.8h-7.3c-2.1,0-3.8-1.7-3.8-3.8V5.52ZM369.77,56.18c16.58,0,23.58-4.41,23.58-15.97v-10.04c-.16-12.12-5.32-16.28-27.23-16.28h-64.05c-2.1,0-3.8,1.7-3.8,3.8v34.68c0,2.1,1.7,3.8,3.8,3.8h67.7Z"/>
      <path class="cls-1" d="M423.47,1.72h7.3c2.1,0,3.8,1.7,3.8,3.8v102.54c0,2.1-1.7,3.8-3.8,3.8h-7.3c-2.1,0-3.8-1.7-3.8-3.8V5.52c0-2.1,1.7-3.8,3.8-3.8Z"/>
      <path class="cls-1" d="M450.09,77.17h6.39c2.1,0,3.8,1.7,3.8,3.8v3.95c0,10.8,5.78,15.97,24.34,15.97h46.25c21.6,0,27.99-4.56,27.99-20.39,0-13.84-5.48-17.34-24.04-17.34h-28.3c-45.49,0-60.4-2.74-60.4-31.95,0-25.1,14.91-30.73,45.64-30.73h32.1c36.97,0,46.25,9.43,46.25,29.06h0c0,2.1-1.7,3.8-3.8,3.8h-6.5c-2.04,0-3.71-1.61-3.8-3.65-.67-14.3-4.92-17.04-41.12-17.04h-15.82c-28.75,0-38.95,1.52-38.95,19.62,0,13.08,4.11,17.49,27.38,17.49h44.12c29.06,0,41.23,8.37,41.23,27.08v7.15c0,27.08-22.21,29.06-44.27,29.06h-41.38c-21.76,0-40.92-3.8-40.92-27.84v-4.26c0-2.1,1.7-3.8,3.8-3.8Z"/>
      <path class="cls-1" d="M586.86,1.72h17.49c1.24,0,2.41.61,3.12,1.63l60.1,86.24c1.51,2.17,4.73,2.17,6.24,0L733.9,3.35c.71-1.02,1.88-1.63,3.12-1.63h17.49c2.1,0,3.8,1.7,3.8,3.8v102.54c0,2.1-1.7,3.8-3.8,3.8h-7.3c-2.1,0-3.8-1.7-3.8-3.8V15.11h-.3l-65.96,95.12c-.71,1.03-1.88,1.64-3.13,1.64h-6.67c-1.25,0-2.42-.61-3.13-1.64l-65.95-95.12h-.3v92.95c0,2.1-1.7,3.8-3.8,3.8h-7.3c-2.1,0-3.8-1.7-3.8-3.8V5.52c0-2.1,1.7-3.8,3.8-3.8Z"/>
    </g>
    <g>
      <path class="cls-1" d="M85.29,43.76c2.86-1.82,3.78-5.58,2.08-8.52L69.14,3.68c-1.13-1.96-3.23-3.17-5.49-3.17s-4.36,1.21-5.49,3.17l-18.25,31.6c-1.7,2.94-.78,6.7,2.09,8.52,1.05.67,2.23.99,3.4.99,2.01,0,3.98-.95,5.21-2.71,2.98-4.26,7.85-6.81,13.04-6.81s10.05,2.54,13.03,6.78c1.95,2.78,5.74,3.53,8.6,1.71Z"/>
      <path class="cls-1" d="M125.97,102.1l-18.67-32.34c-1.72-2.98-5.51-4.05-8.54-2.39-3.02,1.65-4.17,5.42-2.59,8.48,1.17,2.26,1.76,4.71,1.76,7.29,0,8.19-6.14,15-14.27,15.83-3.36.34-5.86,3.26-5.69,6.63.17,3.37,2.96,6.02,6.33,6.02h36.17c2.27,0,4.36-1.21,5.49-3.17,1.13-1.96,1.13-4.38,0-6.34Z"/>
      <path class="cls-1" d="M43.65,99.21c-8.14-.83-14.27-7.63-14.27-15.83,0-2.57.59-5.03,1.76-7.29,1.58-3.06.43-6.83-2.59-8.48-3.02-1.65-6.81-.59-8.54,2.39L1.35,102.35c-1.13,1.96-1.13,4.38,0,6.34,1.13,1.96,3.23,3.17,5.49,3.17h36.17c3.38,0,6.16-2.65,6.33-6.02.17-3.37-2.33-6.29-5.69-6.63Z"/>
    </g>
    <g>
      <path class="cls-1" d="M668.9,128.82c0-4.09,1.39-6.05,5.76-6.05h8.38c3.98,0,5.07,1.85,5.07,4.02v1.38h-1.92v-.74c0-2.75-1.7-2.88-3.71-2.88h-7.59c-2.1,0-3.8.63-3.8,3.44v6.08c0,2.82,1.7,3.44,3.8,3.44h7.66c2.95,0,3.8-.62,3.8-2.81v-1.01h2.05v1.09c0,2.93-.94,4.51-5.47,4.51h-8.27c-4.38,0-5.76-1.97-5.76-6.05v-4.42Z"/>
      <path class="cls-1" d="M691.5,128.82c0-4.09,1.39-6.05,5.76-6.05h9.32c4.38,0,5.76,1.97,5.76,6.05v4.42c0,4.09-1.39,6.05-5.76,6.05h-9.32c-4.38,0-5.76-1.97-5.76-6.05v-4.42ZM710.16,128c0-2.81-1.7-3.44-3.8-3.44h-8.87c-2.1,0-3.8.63-3.8,3.44v6.08c0,2.82,1.7,3.44,3.8,3.44h8.87c2.1,0,3.8-.62,3.8-3.44v-6.08Z"/>
      <path class="cls-1" d="M716.07,122.95h12.93c4.67,0,5.41,1.54,5.41,4.58v1.32c0,2.28-1.3,2.9-2.97,3.06v.04c2.23.4,2.77,1.56,2.77,3.04v4.13h-2.05v-3.55c0-2.52-1.23-2.84-3.22-2.84h-10.68v6.39h-2.19v-16.17ZM728.76,130.95c2.43,0,3.46-.65,3.46-2.35v-1.47c0-1.81-.78-2.39-4-2.39h-9.96v6.21h10.5Z"/>
      <path class="cls-1" d="M738.25,122.95h13.31c2.95,0,4.62.62,4.62,4.4s-.29,5.41-5.05,5.41h-10.7v6.37h-2.19v-16.17ZM754,127.13c0-1.92-1.05-2.39-2.95-2.39h-10.61v6.23h10.79c1.74,0,2.77-.63,2.77-2.3v-1.54Z"/>
      <path class="cls-1" d="M758.33,136.35h2.5v2.77h-2.5v-2.77Z"/>
    </g>
  </g>
</svg>